# xmcd CD database file
#
# Track frame offsets:
#	150
#	18917
#	35330
#	52890
#	66000
#	77735
#	90197
#	133990
#	232450
#	261930
#
# Disc length: 3632 seconds
#
# Revision: 0
# Processed by: cddbd v1.5.1PL0 Copyright (c) Steve Scherf et al.
# Submitted via: CDex 1.51
#
DISCID=7f0e2e0a
DTITLE=The R.C.A Years - Viva Puente! Afro Cuban Jazz
DYEAR=1955
DGENRE=Jazz
TTITLE0=Mambo Beat
TTITLE1=Viva Puente
TTITLE2=The Man I Love
TTITLE3=Caravan
TTITLE4=That Old Feeling
TTITLE5=Picadillo
TTITLE6=Jeanette
TTITLE7=Wuayacananga
TTITLE8=Ti Mon Bo
TTITLE9=Peridido
EXTD=YEAR: 1955
EXTT0=
EXTT1=
EXTT2=
EXTT3=
EXTT4=
EXTT5=
EXTT6=
EXTT7=
EXTT8=
EXTT9=
PLAYORDER=
